<svg xmlns="http://www.w3.org/2000/svg" version="1.1" xmlns:xlink="http://www.w3.org/1999/xlink" xmlns:svgjs="http://svgjs.dev/svgjs" width="1000" height="1000" viewBox="0 0 1000 1000"><rect width="1000" height="1000" fill="#ffffff"></rect><g transform="matrix(0.3741314804917157,0,0,0.3741314804917157,313.5872898390954,150.2834008097165)"><svg viewBox="0 0 132 247" data-background-color="#ffffff" preserveAspectRatio="xMidYMid meet" height="1871" width="1000" xmlns="http://www.w3.org/2000/svg" xmlns:xlink="http://www.w3.org/1999/xlink"><g id="tight-bounds" transform="matrix(1,0,0,1,-0.23040020877294864,-0.09999999999999432)"><svg viewBox="0 0 132.46080041754587 247.2" height="247.2" width="132.46080041754587"><g><svg viewBox="0 0 198.68616711590295 370.7906064" height="247.2" width="132.46080041754587"><g><svg viewBox="0 0 198.68616711590295 370.7906064" height="370.7906064" width="198.68616711590295"><g id="textblocktransform"><svg viewBox="0 0 198.68616711590295 370.7906064" height="370.7906064" width="198.68616711590295" id="textblock"><g><rect width="198.68616711590295" height="247.2" fill="none" stroke-width="9.018103199999999" stroke="#7a26c1" data-fill-palette-color="none" data-stroke-palette-color="tertiary"></rect><rect width="198.68616711590295" height="123.5906064" y="247.2" fill="#7a26c1" data-fill-palette-color="tertiary"></rect></g><g><svg viewBox="0 0 198.68616711590295 247.2" height="247.2" width="198.68616711590295"><g transform="matrix(1,0,0,1,23.607599999999998,23.607599999999998)"><svg width="151.47096711590297" viewBox="4.85 -37.1 28.102272678298 37.1" height="199.9848" data-palette-color="#900aff"><path d="M32.85-0.7L32.85-0.7Q33-0.4 32.93-0.2 32.85 0 32.55 0L32.55 0 28.45 0Q27.75 0 27.55-0.45L27.55-0.45 16.5-18.9Q16.2-19.35 15.75-18.85L15.75-18.85 10-12.3Q9.65-11.9 9.65-11.4L9.65-11.4 9.65-0.75Q9.65 0 8.8 0L8.8 0 5.6 0Q5.2 0 5.03-0.15 4.85-0.3 4.85-0.65L4.85-0.65 4.85-36.5Q4.85-37.1 5.4-37.1L5.4-37.1 9.1-37.1Q9.65-37.1 9.65-36.5L9.65-36.5 9.65-18.15Q9.65-17.85 9.75-17.82 9.85-17.8 10.1-18.05L10.1-18.05 26.5-36.65Q26.7-36.9 26.9-37 27.1-37.1 27.5-37.1L27.5-37.1 30.95-37.1Q31.4-37.1 31.5-36.88 31.6-36.65 31.35-36.4L31.35-36.4 19.7-23.4Q19.5-23.1 19.7-22.75L19.7-22.75 32.85-0.7Z" opacity="1" transform="matrix(1,0,0,1,0,0)" fill="#900aff" class="wordmark-text-0" data-fill-palette-color="primary" id="text-0"></path></svg></g></svg></g></svg></g></svg></g></svg></g><defs></defs></svg><rect width="132.46080041754587" height="247.2" fill="none" stroke="none" visibility="hidden"></rect></g></svg></g></svg>